<svg xmlns="http://www.w3.org/2000/svg" width="1200" height="700" viewBox="0 0 1200 700">
  <defs>
    <linearGradient id="bg" x1="0" y1="0" x2="1" y2="1">
      <stop offset="0%" stop-color="#fbf2e8"/>
      <stop offset="100%" stop-color="#fffdf9"/>
    </linearGradient>
    <linearGradient id="panel" x1="0" y1="0" x2="1" y2="1">
      <stop offset="0%" stop-color="#2d3142"/>
      <stop offset="100%" stop-color="#1f2330"/>
    </linearGradient>
    <linearGradient id="gold" x1="0" y1="0" x2="1" y2="1">
      <stop offset="0%" stop-color="#f5d39b"/>
      <stop offset="100%" stop-color="#d6a15c"/>
    </linearGradient>
  </defs>

  <rect width="1200" height="700" fill="url(#bg)"/>
  <rect x="56" y="48" width="1088" height="604" rx="34" fill="#fffdf9" stroke="#ead9c7" stroke-width="4"/>

  <circle cx="1044" cy="118" r="130" fill="#f6e4d4"/>
  <circle cx="1044" cy="118" r="88" fill="url(#gold)"/>
  <text x="1044" y="142" text-anchor="middle" font-family="Arial, Helvetica, sans-serif" font-size="72" font-weight="700" fill="#7b4c2d">1</text>

  <text x="110" y="126" font-family="Arial, Helvetica, sans-serif" font-size="44" font-weight="700" fill="#5a3d2b">Bước 1: Mở trang chính</text>
  <text x="110" y="168" font-family="Arial, Helvetica, sans-serif" font-size="24" fill="#7a5a46">Từ đây bạn đi đến phần tạo thiệp.</text>

  <rect x="110" y="214" width="650" height="330" rx="26" fill="url(#panel)"/>
  <rect x="110" y="214" width="650" height="42" rx="26" fill="#41465a"/>
  <circle cx="150" cy="235" r="8" fill="#f7b267"/>
  <circle cx="176" cy="235" r="8" fill="#fcd5ce"/>
  <circle cx="202" cy="235" r="8" fill="#cdeac0"/>
  <rect x="250" y="226" width="430" height="24" rx="12" fill="#ffffff" opacity="0.9"/>

  <rect x="160" y="290" width="100" height="42" rx="21" fill="#ffffff"/>
  <text x="210" y="317" text-anchor="middle" font-family="Arial, Helvetica, sans-serif" font-size="18" fill="#5a3d2b">Trang chủ</text>

  <rect x="275" y="290" width="104" height="42" rx="21" fill="#ffffff"/>
  <text x="327" y="317" text-anchor="middle" font-family="Arial, Helvetica, sans-serif" font-size="18" fill="#5a3d2b">Tạo thiệp</text>

  <rect x="394" y="290" width="128" height="42" rx="21" fill="#ffffff"/>
  <text x="458" y="317" text-anchor="middle" font-family="Arial, Helvetica, sans-serif" font-size="18" fill="#5a3d2b">Thiệp riêng</text>

  <rect x="537" y="290" width="172" height="42" rx="21" fill="#ffffff"/>
  <text x="623" y="317" text-anchor="middle" font-family="Arial, Helvetica, sans-serif" font-size="18" fill="#5a3d2b">Xác nhận tham dự</text>

  <rect x="190" y="372" width="500" height="118" rx="20" fill="#fff8ef"/>
  <text x="238" y="420" font-family="Arial, Helvetica, sans-serif" font-size="28" font-weight="700" fill="#5a3d2b">Chọn nút Tạo thiệp</text>
  <text x="238" y="458" font-family="Arial, Helvetica, sans-serif" font-size="20" fill="#7a5a46">Sau đó nhập tên khách và tạo link riêng.</text>
  <rect x="492" y="406" width="160" height="52" rx="26" fill="url(#gold)"/>
  <text x="572" y="439" text-anchor="middle" font-family="Arial, Helvetica, sans-serif" font-size="22" font-weight="700" fill="#5a3d2b">Tạo thiệp</text>

  <path d="M800 388 C860 388, 882 388, 930 388" fill="none" stroke="#d6a15c" stroke-width="10" stroke-linecap="round"/>
  <path d="M920 374 L950 388 L920 402" fill="none" stroke="#d6a15c" stroke-width="10" stroke-linecap="round" stroke-linejoin="round"/>
  <text x="810" y="330" font-family="Arial, Helvetica, sans-serif" font-size="30" font-weight="700" fill="#5a3d2b">Bấm vào đây</text>
  <text x="810" y="372" font-family="Arial, Helvetica, sans-serif" font-size="20" fill="#7a5a46">Đây là bước bắt đầu.</text>
</svg>
