<svg xmlns="http://www.w3.org/2000/svg" width="1200" height="700" viewBox="0 0 1200 700">
  <defs>
    <linearGradient id="bg" x1="0" y1="0" x2="1" y2="1">
      <stop offset="0%" stop-color="#fbf2e8"/>
      <stop offset="100%" stop-color="#fffdf9"/>
    </linearGradient>
    <linearGradient id="gold" x1="0" y1="0" x2="1" y2="1">
      <stop offset="0%" stop-color="#f5d39b"/>
      <stop offset="100%" stop-color="#d6a15c"/>
    </linearGradient>
  </defs>

  <rect width="1200" height="700" fill="url(#bg)"/>
  <rect x="56" y="48" width="1088" height="604" rx="34" fill="#fffdf9" stroke="#ead9c7" stroke-width="4"/>

  <circle cx="1044" cy="118" r="130" fill="#f6e4d4"/>
  <circle cx="1044" cy="118" r="88" fill="url(#gold)"/>
  <text x="1044" y="142" text-anchor="middle" font-family="Arial, Helvetica, sans-serif" font-size="72" font-weight="700" fill="#7b4c2d">3</text>

  <text x="110" y="126" font-family="Arial, Helvetica, sans-serif" font-size="44" font-weight="700" fill="#5a3d2b">Bước 3: Lưu link thiệp</text>
  <text x="110" y="168" font-family="Arial, Helvetica, sans-serif" font-size="24" fill="#7a5a46">Link sẽ hiện ra sau khi thiệp được tạo xong.</text>

  <rect x="120" y="224" width="620" height="300" rx="28" fill="#ffffff" stroke="#ead9c7" stroke-width="3"/>
  <rect x="120" y="224" width="620" height="54" rx="28" fill="#f8efe5"/>
  <text x="170" y="258" font-family="Arial, Helvetica, sans-serif" font-size="26" font-weight="700" fill="#5a3d2b">Thiệp đã sẵn sàng</text>

  <rect x="164" y="320" width="532" height="70" rx="18" fill="#fff8ef" stroke="#e7d8c8" stroke-width="3"/>
  <text x="188" y="364" font-family="Arial, Helvetica, sans-serif" font-size="22" fill="#7a5a46">https://duccuong.thiepcuoi.me/...</text>

  <rect x="164" y="418" width="190" height="52" rx="26" fill="url(#gold)"/>
  <text x="259" y="451" text-anchor="middle" font-family="Arial, Helvetica, sans-serif" font-size="22" font-weight="700" fill="#5a3d2b">Copy link</text>

  <text x="414" y="448" font-family="Arial, Helvetica, sans-serif" font-size="20" fill="#7a5a46">Sao chép rồi gửi cho khách</text>

  <rect x="804" y="236" width="302" height="250" rx="30" fill="#f8efe5"/>
  <text x="955" y="300" text-anchor="middle" font-family="Arial, Helvetica, sans-serif" font-size="30" font-weight="700" fill="#5a3d2b">Sao chép link</text>
  <text x="955" y="344" text-anchor="middle" font-family="Arial, Helvetica, sans-serif" font-size="20" fill="#7a5a46">để gửi đi ngay</text>
  <path d="M852 388 C890 388, 905 388, 930 388" fill="none" stroke="#d6a15c" stroke-width="8" stroke-linecap="round"/>
  <path d="M920 376 L950 388 L920 400" fill="none" stroke="#d6a15c" stroke-width="8" stroke-linecap="round" stroke-linejoin="round"/>
</svg>
