<svg xmlns="http://www.w3.org/2000/svg" width="1200" height="700" viewBox="0 0 1200 700">
  <defs>
    <linearGradient id="bg" x1="0" y1="0" x2="1" y2="1">
      <stop offset="0%" stop-color="#fbf2e8"/>
      <stop offset="100%" stop-color="#fffdf9"/>
    </linearGradient>
    <linearGradient id="gold" x1="0" y1="0" x2="1" y2="1">
      <stop offset="0%" stop-color="#f5d39b"/>
      <stop offset="100%" stop-color="#d6a15c"/>
    </linearGradient>
  </defs>

  <rect width="1200" height="700" fill="url(#bg)"/>
  <rect x="56" y="48" width="1088" height="604" rx="34" fill="#fffdf9" stroke="#ead9c7" stroke-width="4"/>

  <circle cx="1044" cy="118" r="130" fill="#f6e4d4"/>
  <circle cx="1044" cy="118" r="88" fill="url(#gold)"/>
  <text x="1044" y="142" text-anchor="middle" font-family="Arial, Helvetica, sans-serif" font-size="72" font-weight="700" fill="#7b4c2d">5</text>

  <text x="110" y="126" font-family="Arial, Helvetica, sans-serif" font-size="44" font-weight="700" fill="#5a3d2b">Bước 5: Xem ai đã trả lời</text>
  <text x="110" y="168" font-family="Arial, Helvetica, sans-serif" font-size="24" fill="#7a5a46">Mở phần Xác nhận tham dự để xem kết quả.</text>

  <rect x="112" y="224" width="966" height="330" rx="28" fill="#ffffff" stroke="#ead9c7" stroke-width="3"/>
  <rect x="112" y="224" width="966" height="56" rx="28" fill="#f8efe5"/>
  <text x="158" y="260" font-family="Arial, Helvetica, sans-serif" font-size="28" font-weight="700" fill="#5a3d2b">Xác nhận tham dự</text>

  <rect x="160" y="314" width="240" height="50" rx="16" fill="#fff8ef" stroke="#e7d8c8" stroke-width="2"/>
  <text x="178" y="345" font-family="Arial, Helvetica, sans-serif" font-size="20" fill="#9b7d66">Tìm theo tên</text>

  <rect x="420" y="314" width="220" height="50" rx="16" fill="#fff8ef" stroke="#e7d8c8" stroke-width="2"/>
  <text x="438" y="345" font-family="Arial, Helvetica, sans-serif" font-size="20" fill="#9b7d66">Chọn trạng thái</text>

  <rect x="160" y="390" width="840" height="62" rx="16" fill="#f8efe5"/>
  <text x="190" y="428" font-family="Arial, Helvetica, sans-serif" font-size="22" fill="#5a3d2b">Nguyễn Văn A</text>
  <rect x="620" y="405" width="120" height="30" rx="15" fill="#daf2e2"/>
  <text x="680" y="426" text-anchor="middle" font-family="Arial, Helvetica, sans-serif" font-size="18" fill="#2c7a4b">Sẽ đến</text>
  <text x="780" y="428" font-family="Arial, Helvetica, sans-serif" font-size="20" fill="#7a5a46">Đã gửi lời nhắn</text>

  <rect x="160" y="464" width="840" height="62" rx="16" fill="#ffffff" stroke="#eee3d4" stroke-width="2"/>
  <text x="190" y="502" font-family="Arial, Helvetica, sans-serif" font-size="22" fill="#5a3d2b">Trần Thị B</text>
  <rect x="620" y="479" width="120" height="30" rx="15" fill="#fbe4e4"/>
  <text x="680" y="500" text-anchor="middle" font-family="Arial, Helvetica, sans-serif" font-size="18" fill="#b23a48">Không đến</text>
  <text x="780" y="502" font-family="Arial, Helvetica, sans-serif" font-size="20" fill="#7a5a46">Đã phản hồi</text>
</svg>
